{
    "asset" : {
        "generator" : "Khronos glTF Blender I/O v3.3.32",
        "version" : "2.0"
    },
    "scene" : 0,
    "scenes" : [
        {
            "name" : "Scene",
            "nodes" : [
                0,
                1,
                2,
                3,
                4,
                5,
                6,
                7
            ]
        }
    ],
    "nodes" : [
        {
            "mesh" : 0,
            "name" : "Platteusw",
            "scale" : [
                2.5778708457946777,
                0.17268234491348267,
                4.776359558105469
            ],
            "translation" : [
                -0.012087345123291016,
                0.019397735595703125,
                0.8232983946800232
            ]
        },
        {
            "mesh" : 1,
            "name" : "Bein1",
            "scale" : [
                2.5778708457946777,
                0.17268234491348267,
                4.776359558105469
            ],
            "translation" : [
                -0.012087345123291016,
                0.019397735595703125,
                0.8232983946800232
            ]
        },
        {
            "mesh" : 2,
            "name" : "Bein2",
            "rotation" : [
                1,
                0,
                0,
                0
            ],
            "scale" : [
                -2.5778708457946777,
                -0.17268234491348267,
                -4.776359558105469
            ],
            "translation" : [
                -0.012087345123291016,
                0.019397735595703125,
                0.8232983946800232
            ]
        },
        {
            "mesh" : 3,
            "name" : "Bein3",
            "rotation" : [
                0,
                1,
                0,
                0
            ],
            "scale" : [
                2.5778708457946777,
                0.17268234491348267,
                4.776359558105469
            ],
            "translation" : [
                -0.012087345123291016,
                0.019397735595703125,
                0.8232983946800232
            ]
        },
        {
            "mesh" : 4,
            "name" : "Bein4",
            "rotation" : [
                0,
                0,
                -1,
                0
            ],
            "scale" : [
                -2.5778708457946777,
                -0.17268234491348267,
                -4.776359558105469
            ],
            "translation" : [
                -0.012087345123291016,
                0.019397735595703125,
                0.8232983946800232
            ]
        },
        {
            "mesh" : 5,
            "name" : "Landschaft",
            "rotation" : [
                1,
                0,
                0,
                0
            ],
            "scale" : [
                -2.6106808185577393,
                -0.17268234491348267,
                -4.839112281799316
            ],
            "translation" : [
                -0.012087345123291016,
                0.019397735595703125,
                0.8232983946800232
            ]
        },
        {
            "mesh" : 6,
            "name" : "OutsideTrack",
            "translation" : [
                0.03268778324127197,
                4.130247116088867,
                -1.0851300954818726
            ]
        },
        {
            "mesh" : 7,
            "name" : "OutsideTrack.001",
            "translation" : [
                0.03268778324127197,
                3.91821551322937,
                -1.0851300954818726
            ]
        }
    ],
    "materials" : [
        {
            "doubleSided" : true,
            "name" : "wood_table_001",
            "normalTexture" : {
                "index" : 0,
                "scale" : 0.3499999940395355
            },
            "pbrMetallicRoughness" : {
                "baseColorTexture" : {
                    "index" : 1
                },
                "metallicFactor" : 0,
                "metallicRoughnessTexture" : {
                    "index" : 2
                }
            }
        },
        {
            "doubleSided" : true,
            "name" : "Material",
            "pbrMetallicRoughness" : {
                "baseColorFactor" : [
                    0.800000011920929,
                    0.800000011920929,
                    0.800000011920929,
                    1
                ],
                "metallicFactor" : 0,
                "roughnessFactor" : 0.5
            }
        },
        {
            "doubleSided" : true,
            "name" : "Material.001",
            "pbrMetallicRoughness" : {
                "baseColorFactor" : [
                    0.800000011920929,
                    0.800000011920929,
                    0.800000011920929,
                    1
                ],
                "metallicFactor" : 0,
                "roughnessFactor" : 0.5
            }
        },
        {
            "doubleSided" : true,
            "name" : "Material.002",
            "pbrMetallicRoughness" : {
                "baseColorFactor" : [
                    0.800000011920929,
                    0.800000011920929,
                    0.800000011920929,
                    1
                ],
                "metallicFactor" : 0,
                "roughnessFactor" : 0.5
            }
        },
        {
            "doubleSided" : true,
            "name" : "Material.003",
            "pbrMetallicRoughness" : {
                "baseColorFactor" : [
                    0.800000011920929,
                    0.800000011920929,
                    0.800000011920929,
                    1
                ],
                "metallicFactor" : 0,
                "roughnessFactor" : 0.5
            }
        },
        {
            "doubleSided" : true,
            "name" : "aerial_grass_rock",
            "normalTexture" : {
                "index" : 3
            },
            "pbrMetallicRoughness" : {
                "baseColorTexture" : {
                    "index" : 4
                },
                "metallicFactor" : 0,
                "metallicRoughnessTexture" : {
                    "index" : 5
                }
            }
        },
        {
            "doubleSided" : true,
            "name" : "aerial_asphalt_01",
            "normalTexture" : {
                "index" : 6
            },
            "pbrMetallicRoughness" : {
                "baseColorTexture" : {
                    "index" : 7
                },
                "metallicFactor" : 0,
                "metallicRoughnessTexture" : {
                    "index" : 8
                }
            }
        }
    ],
    "meshes" : [
        {
            "name" : "Cube",
            "primitives" : [
                {
                    "attributes" : {
                        "POSITION" : 0,
                        "NORMAL" : 1
                    },
                    "indices" : 2,
                    "material" : 0
                }
            ]
        },
        {
            "name" : "Cube.001",
            "primitives" : [
                {
                    "attributes" : {
                        "POSITION" : 3,
                        "NORMAL" : 4
                    },
                    "indices" : 5,
                    "material" : 1
                }
            ]
        },
        {
            "name" : "Cube.002",
            "primitives" : [
                {
                    "attributes" : {
                        "POSITION" : 6,
                        "NORMAL" : 7
                    },
                    "indices" : 5,
                    "material" : 2
                }
            ]
        },
        {
            "name" : "Cube.003",
            "primitives" : [
                {
                    "attributes" : {
                        "POSITION" : 8,
                        "NORMAL" : 9
                    },
                    "indices" : 5,
                    "material" : 3
                }
            ]
        },
        {
            "name" : "Cube.004",
            "primitives" : [
                {
                    "attributes" : {
                        "POSITION" : 10,
                        "NORMAL" : 11
                    },
                    "indices" : 5,
                    "material" : 4
                }
            ]
        },
        {
            "name" : "Cube.010",
            "primitives" : [
                {
                    "attributes" : {
                        "POSITION" : 12,
                        "NORMAL" : 13
                    },
                    "indices" : 14,
                    "material" : 5
                }
            ]
        },
        {
            "name" : "Mesh",
            "primitives" : [
                {
                    "attributes" : {
                        "POSITION" : 15,
                        "NORMAL" : 16
                    },
                    "indices" : 17,
                    "material" : 6
                }
            ]
        },
        {
            "name" : "Mesh.001",
            "primitives" : [
                {
                    "attributes" : {
                        "POSITION" : 18,
                        "NORMAL" : 19
                    },
                    "indices" : 20
                }
            ]
        }
    ],
    "textures" : [
        {
            "sampler" : 0,
            "source" : 0
        },
        {
            "sampler" : 0,
            "source" : 1
        },
        {
            "sampler" : 0,
            "source" : 2
        },
        {
            "sampler" : 0,
            "source" : 3
        },
        {
            "sampler" : 0,
            "source" : 4
        },
        {
            "sampler" : 0,
            "source" : 5
        },
        {
            "sampler" : 0,
            "source" : 6
        },
        {
            "sampler" : 0,
            "source" : 7
        },
        {
            "sampler" : 0,
            "source" : 5
        }
    ],
    "images" : [
        {
            "mimeType" : "image/png",
            "name" : "wood_table_001_nor_gl_16k",
            "uri" : "wood_table_001_nor_gl_16k.png"
        },
        {
            "mimeType" : "image/jpeg",
            "name" : "wood_table_001_diff_4k",
            "uri" : "wood_table_001_diff_4k.jpg"
        },
        {
            "mimeType" : "image/png",
            "name" : "wood_table_001_rough_4k",
            "uri" : "wood_table_001_rough_4k.png"
        },
        {
            "mimeType" : "image/png",
            "name" : "aerial_grass_rock_nor_4k",
            "uri" : "aerial_grass_rock_nor_4k.png"
        },
        {
            "mimeType" : "image/jpeg",
            "name" : "aerial_grass_rock_diff_4k",
            "uri" : "aerial_grass_rock_diff_4k.jpg"
        },
        {
            "mimeType" : "image/png",
            "name" : "Image",
            "uri" : "Image.png"
        },
        {
            "mimeType" : "image/png",
            "name" : "aerial_asphalt_01_nor_4k",
            "uri" : "aerial_asphalt_01_nor_4k.png"
        },
        {
            "mimeType" : "image/jpeg",
            "name" : "aerial_asphalt_01_diff_1k",
            "uri" : "aerial_asphalt_01_diff_1k.jpg"
        }
    ],
    "accessors" : [
        {
            "bufferView" : 0,
            "componentType" : 5126,
            "count" : 254,
            "max" : [
                1,
                23.72083282470703,
                1
            ],
            "min" : [
                -1,
                10.574332237243652,
                -1
            ],
            "type" : "VEC3"
        },
        {
            "bufferView" : 1,
            "componentType" : 5126,
            "count" : 254,
            "type" : "VEC3"
        },
        {
            "bufferView" : 2,
            "componentType" : 5123,
            "count" : 564,
            "type" : "SCALAR"
        },
        {
            "bufferView" : 3,
            "componentType" : 5126,
            "count" : 24,
            "max" : [
                0.9173986911773682,
                10.723882675170898,
                0.9551774263381958
            ],
            "min" : [
                0.7556523084640503,
                0.03153371810913086,
                0.8678805232048035
            ],
            "type" : "VEC3"
        },
        {
            "bufferView" : 4,
            "componentType" : 5126,
            "count" : 24,
            "type" : "VEC3"
        },
        {
            "bufferView" : 5,
            "componentType" : 5123,
            "count" : 36,
            "type" : "SCALAR"
        },
        {
            "bufferView" : 6,
            "componentType" : 5126,
            "count" : 24,
            "max" : [
                0.9173986911773682,
                10.723882675170898,
                0.9551774263381958
            ],
            "min" : [
                0.7556523084640503,
                0.03153371810913086,
                0.8678805232048035
            ],
            "type" : "VEC3"
        },
        {
            "bufferView" : 7,
            "componentType" : 5126,
            "count" : 24,
            "type" : "VEC3"
        },
        {
            "bufferView" : 8,
            "componentType" : 5126,
            "count" : 24,
            "max" : [
                0.9173986911773682,
                10.723882675170898,
                0.9551774263381958
            ],
            "min" : [
                0.7556523084640503,
                0.03153371810913086,
                0.8678805232048035
            ],
            "type" : "VEC3"
        },
        {
            "bufferView" : 9,
            "componentType" : 5126,
            "count" : 24,
            "type" : "VEC3"
        },
        {
            "bufferView" : 10,
            "componentType" : 5126,
            "count" : 24,
            "max" : [
                0.9173986911773682,
                10.723882675170898,
                0.9551774263381958
            ],
            "min" : [
                0.7556523084640503,
                0.03153371810913086,
                0.8678805232048035
            ],
            "type" : "VEC3"
        },
        {
            "bufferView" : 11,
            "componentType" : 5126,
            "count" : 24,
            "type" : "VEC3"
        },
        {
            "bufferView" : 12,
            "componentType" : 5126,
            "count" : 29342,
            "max" : [
                0.7912663817405701,
                27.247806549072266,
                0.5686074495315552
            ],
            "min" : [
                -0.7902814149856567,
                10.242151260375977,
                -0.5606765747070312
            ],
            "type" : "VEC3"
        },
        {
            "bufferView" : 13,
            "componentType" : 5126,
            "count" : 29342,
            "type" : "VEC3"
        },
        {
            "bufferView" : 14,
            "componentType" : 5123,
            "count" : 83412,
            "type" : "SCALAR"
        },
        {
            "bufferView" : 15,
            "componentType" : 5126,
            "count" : 192,
            "max" : [
                1.8227373361587524,
                0,
                2.9630300998687744
            ],
            "min" : [
                -2.0594139099121094,
                0,
                -0.7648557424545288
            ],
            "type" : "VEC3"
        },
        {
            "bufferView" : 16,
            "componentType" : 5126,
            "count" : 192,
            "type" : "VEC3"
        },
        {
            "bufferView" : 17,
            "componentType" : 5123,
            "count" : 576,
            "type" : "SCALAR"
        },
        {
            "bufferView" : 18,
            "componentType" : 5126,
            "count" : 594,
            "max" : [
                1.3277456760406494,
                0.8916341066360474,
                2.67352032661438
            ],
            "min" : [
                -1.7254290580749512,
                -0.10650110244750977,
                -0.3199087083339691
            ],
            "type" : "VEC3"
        },
        {
            "bufferView" : 19,
            "componentType" : 5126,
            "count" : 594,
            "type" : "VEC3"
        },
        {
            "bufferView" : 20,
            "componentType" : 5123,
            "count" : 1176,
            "type" : "SCALAR"
        }
    ],
    "bufferViews" : [
        {
            "buffer" : 0,
            "byteLength" : 3048,
            "byteOffset" : 0,
            "target" : 34962
        },
        {
            "buffer" : 0,
            "byteLength" : 3048,
            "byteOffset" : 3048,
            "target" : 34962
        },
        {
            "buffer" : 0,
            "byteLength" : 1128,
            "byteOffset" : 6096,
            "target" : 34963
        },
        {
            "buffer" : 0,
            "byteLength" : 288,
            "byteOffset" : 7224,
            "target" : 34962
        },
        {
            "buffer" : 0,
            "byteLength" : 288,
            "byteOffset" : 7512,
            "target" : 34962
        },
        {
            "buffer" : 0,
            "byteLength" : 72,
            "byteOffset" : 7800,
            "target" : 34963
        },
        {
            "buffer" : 0,
            "byteLength" : 288,
            "byteOffset" : 7872,
            "target" : 34962
        },
        {
            "buffer" : 0,
            "byteLength" : 288,
            "byteOffset" : 8160,
            "target" : 34962
        },
        {
            "buffer" : 0,
            "byteLength" : 288,
            "byteOffset" : 8448,
            "target" : 34962
        },
        {
            "buffer" : 0,
            "byteLength" : 288,
            "byteOffset" : 8736,
            "target" : 34962
        },
        {
            "buffer" : 0,
            "byteLength" : 288,
            "byteOffset" : 9024,
            "target" : 34962
        },
        {
            "buffer" : 0,
            "byteLength" : 288,
            "byteOffset" : 9312,
            "target" : 34962
        },
        {
            "buffer" : 0,
            "byteLength" : 352104,
            "byteOffset" : 9600,
            "target" : 34962
        },
        {
            "buffer" : 0,
            "byteLength" : 352104,
            "byteOffset" : 361704,
            "target" : 34962
        },
        {
            "buffer" : 0,
            "byteLength" : 166824,
            "byteOffset" : 713808,
            "target" : 34963
        },
        {
            "buffer" : 0,
            "byteLength" : 2304,
            "byteOffset" : 880632,
            "target" : 34962
        },
        {
            "buffer" : 0,
            "byteLength" : 2304,
            "byteOffset" : 882936,
            "target" : 34962
        },
        {
            "buffer" : 0,
            "byteLength" : 1152,
            "byteOffset" : 885240,
            "target" : 34963
        },
        {
            "buffer" : 0,
            "byteLength" : 7128,
            "byteOffset" : 886392,
            "target" : 34962
        },
        {
            "buffer" : 0,
            "byteLength" : 7128,
            "byteOffset" : 893520,
            "target" : 34962
        },
        {
            "buffer" : 0,
            "byteLength" : 2352,
            "byteOffset" : 900648,
            "target" : 34963
        }
    ],
    "samplers" : [
        {
            "magFilter" : 9729,
            "minFilter" : 9987
        }
    ],
    "buffers" : [
        {
            "byteLength" : 903000,
            "uri" : "NewTisch.bin"
        }
    ]
}
