{
    "asset" : {
        "generator" : "Khronos glTF Blender I/O v3.3.32",
        "version" : "2.0"
    },
    "scene" : 0,
    "scenes" : [
        {
            "name" : "Scene",
            "nodes" : [
                0,
                1,
                2,
                3,
                4,
                5,
                6
            ]
        }
    ],
    "nodes" : [
        {
            "mesh" : 0,
            "name" : "Landschaft",
            "scale" : [
                1.9991565942764282,
                1,
                2.703303575515747
            ],
            "translation" : [
                0,
                2.3540732860565186,
                0
            ]
        },
        {
            "mesh" : 1,
            "name" : "Strecke",
            "rotation" : [
                0,
                1,
                0,
                0
            ],
            "scale" : [
                -0.035924483090639114,
                -0.02483731135725975,
                -0.30932939052581787
            ],
            "translation" : [
                0,
                3.343916893005371,
                0
            ]
        },
        {
            "mesh" : 2,
            "name" : "Tischplatte",
            "scale" : [
                2.5,
                1.5,
                4
            ],
            "translation" : [
                0,
                1.851548194885254,
                0
            ]
        },
        {
            "mesh" : 3,
            "name" : "Bein1",
            "rotation" : [
                0,
                0,
                -1,
                0
            ],
            "scale" : [
                -2.5,
                -1.5,
                -4
            ],
            "translation" : [
                0,
                1.851548194885254,
                0
            ]
        },
        {
            "mesh" : 4,
            "name" : "Bein2",
            "scale" : [
                2.5,
                1.5,
                4
            ],
            "translation" : [
                0,
                1.851548194885254,
                0
            ]
        },
        {
            "mesh" : 5,
            "name" : "Bein3",
            "rotation" : [
                1,
                0,
                0,
                0
            ],
            "scale" : [
                -2.5,
                -1.5,
                -4
            ],
            "translation" : [
                0,
                1.851548194885254,
                0
            ]
        },
        {
            "mesh" : 6,
            "name" : "Bein4",
            "rotation" : [
                0,
                1,
                0,
                0
            ],
            "scale" : [
                2.5,
                1.5,
                4
            ],
            "translation" : [
                0,
                1.851548194885254,
                0
            ]
        }
    ],
    "materials" : [
        {
            "doubleSided" : true,
            "name" : "aerial_grass_rock",
            "normalTexture" : {
                "index" : 0
            },
            "pbrMetallicRoughness" : {
                "baseColorTexture" : {
                    "index" : 1
                },
                "metallicFactor" : 0,
                "metallicRoughnessTexture" : {
                    "index" : 2
                }
            }
        },
        {
            "doubleSided" : true,
            "name" : "Material.002",
            "pbrMetallicRoughness" : {
                "baseColorFactor" : [
                    0.06072093918919563,
                    0.06072093918919563,
                    0.06072093918919563,
                    1
                ],
                "metallicFactor" : 0,
                "roughnessFactor" : 0.5
            }
        },
        {
            "doubleSided" : true,
            "name" : "wood_table_001",
            "normalTexture" : {
                "index" : 3,
                "scale" : 0.3499999940395355
            },
            "pbrMetallicRoughness" : {
                "baseColorTexture" : {
                    "index" : 4
                },
                "metallicFactor" : 0,
                "metallicRoughnessTexture" : {
                    "index" : 5
                }
            }
        },
        {
            "doubleSided" : true,
            "name" : "wood_table_001.001",
            "normalTexture" : {
                "index" : 6,
                "scale" : 0.3499999940395355
            },
            "pbrMetallicRoughness" : {
                "baseColorTexture" : {
                    "index" : 7
                },
                "metallicFactor" : 0,
                "metallicRoughnessTexture" : {
                    "index" : 8
                }
            }
        },
        {
            "doubleSided" : true,
            "name" : "wood_table_001.002",
            "normalTexture" : {
                "index" : 9,
                "scale" : 0.3499999940395355
            },
            "pbrMetallicRoughness" : {
                "baseColorTexture" : {
                    "index" : 10
                },
                "metallicFactor" : 0,
                "metallicRoughnessTexture" : {
                    "index" : 11
                }
            }
        },
        {
            "doubleSided" : true,
            "name" : "wood_table_001.003",
            "normalTexture" : {
                "index" : 12,
                "scale" : 0.3499999940395355
            },
            "pbrMetallicRoughness" : {
                "baseColorTexture" : {
                    "index" : 13
                },
                "metallicFactor" : 0,
                "metallicRoughnessTexture" : {
                    "index" : 14
                }
            }
        }
    ],
    "meshes" : [
        {
            "name" : "Cube.001",
            "primitives" : [
                {
                    "attributes" : {
                        "POSITION" : 0,
                        "NORMAL" : 1,
                        "TEXCOORD_0" : 2
                    },
                    "indices" : 3,
                    "material" : 0
                }
            ]
        },
        {
            "name" : "Cube.002",
            "primitives" : [
                {
                    "attributes" : {
                        "POSITION" : 4,
                        "NORMAL" : 5,
                        "TEXCOORD_0" : 6
                    },
                    "indices" : 7,
                    "material" : 1
                }
            ]
        },
        {
            "name" : "Cube",
            "primitives" : [
                {
                    "attributes" : {
                        "POSITION" : 8,
                        "NORMAL" : 9,
                        "TEXCOORD_0" : 10
                    },
                    "indices" : 11,
                    "material" : 2
                }
            ]
        },
        {
            "name" : "Cube.007",
            "primitives" : [
                {
                    "attributes" : {
                        "POSITION" : 12,
                        "NORMAL" : 13,
                        "TEXCOORD_0" : 14
                    },
                    "indices" : 15,
                    "material" : 2
                }
            ]
        },
        {
            "name" : "Cube.008",
            "primitives" : [
                {
                    "attributes" : {
                        "POSITION" : 16,
                        "NORMAL" : 17,
                        "TEXCOORD_0" : 18
                    },
                    "indices" : 15,
                    "material" : 3
                }
            ]
        },
        {
            "name" : "Cube.009",
            "primitives" : [
                {
                    "attributes" : {
                        "POSITION" : 19,
                        "NORMAL" : 20,
                        "TEXCOORD_0" : 21
                    },
                    "indices" : 15,
                    "material" : 4
                }
            ]
        },
        {
            "name" : "Cube.010",
            "primitives" : [
                {
                    "attributes" : {
                        "POSITION" : 22,
                        "NORMAL" : 23,
                        "TEXCOORD_0" : 24
                    },
                    "indices" : 15,
                    "material" : 5
                }
            ]
        }
    ],
    "textures" : [
        {
            "sampler" : 0,
            "source" : 0
        },
        {
            "sampler" : 0,
            "source" : 1
        },
        {
            "sampler" : 0,
            "source" : 2
        },
        {
            "sampler" : 0,
            "source" : 3
        },
        {
            "sampler" : 0,
            "source" : 4
        },
        {
            "sampler" : 0,
            "source" : 5
        },
        {
            "sampler" : 0,
            "source" : 6
        },
        {
            "sampler" : 0,
            "source" : 4
        },
        {
            "sampler" : 0,
            "source" : 5
        },
        {
            "sampler" : 0,
            "source" : 6
        },
        {
            "sampler" : 0,
            "source" : 4
        },
        {
            "sampler" : 0,
            "source" : 5
        },
        {
            "sampler" : 0,
            "source" : 6
        },
        {
            "sampler" : 0,
            "source" : 4
        },
        {
            "sampler" : 0,
            "source" : 5
        }
    ],
    "images" : [
        {
            "mimeType" : "image/jpeg",
            "name" : "aerial_grass_rock_nor_4k",
            "uri" : "aerial_grass_rock_nor_4k.jpg"
        },
        {
            "mimeType" : "image/jpeg",
            "name" : "aerial_grass_rock_diff_4k",
            "uri" : "aerial_grass_rock_diff_4k.jpg"
        },
        {
            "mimeType" : "image/jpeg",
            "name" : "Image",
            "uri" : "Image.jpg"
        },
        {
            "mimeType" : "image/jpeg",
            "name" : "wood_table_001_nor_gl_16k",
            "uri" : "wood_table_001_nor_gl_16k.jpg"
        },
        {
            "mimeType" : "image/jpeg",
            "name" : "wood_table_001_diff_4k",
            "uri" : "wood_table_001_diff_4k.jpg"
        },
        {
            "mimeType" : "image/jpeg",
            "name" : "wood_table_001_rough_4k",
            "uri" : "wood_table_001_rough_4k.jpg"
        },
        {
            "mimeType" : "image/jpeg",
            "name" : "wood_table_001_nor_gl_16k.png",
            "uri" : "wood_table_001_nor_gl_16k_png.jpg"
        }
    ],
    "accessors" : [
        {
            "bufferView" : 0,
            "componentType" : 5126,
            "count" : 15844,
            "max" : [
                1,
                1.5614473819732666,
                1
            ],
            "min" : [
                -1,
                0.39439857006073,
                -1
            ],
            "type" : "VEC3"
        },
        {
            "bufferView" : 1,
            "componentType" : 5126,
            "count" : 15844,
            "type" : "VEC3"
        },
        {
            "bufferView" : 2,
            "componentType" : 5126,
            "count" : 15844,
            "type" : "VEC2"
        },
        {
            "bufferView" : 3,
            "componentType" : 5123,
            "count" : 38220,
            "type" : "SCALAR"
        },
        {
            "bufferView" : 4,
            "componentType" : 5126,
            "count" : 14854,
            "max" : [
                55.68674850463867,
                1.0000076293945312,
                7.706386566162109
            ],
            "min" : [
                -54.37451171875,
                -5.268585205078125,
                -4.5003886222839355
            ],
            "type" : "VEC3"
        },
        {
            "bufferView" : 5,
            "componentType" : 5126,
            "count" : 14854,
            "type" : "VEC3"
        },
        {
            "bufferView" : 6,
            "componentType" : 5126,
            "count" : 14854,
            "type" : "VEC2"
        },
        {
            "bufferView" : 7,
            "componentType" : 5123,
            "count" : 22308,
            "type" : "SCALAR"
        },
        {
            "bufferView" : 8,
            "componentType" : 5126,
            "count" : 196,
            "max" : [
                1,
                1,
                1
            ],
            "min" : [
                -1,
                0.2997227907180786,
                -1
            ],
            "type" : "VEC3"
        },
        {
            "bufferView" : 9,
            "componentType" : 5126,
            "count" : 196,
            "type" : "VEC3"
        },
        {
            "bufferView" : 10,
            "componentType" : 5126,
            "count" : 196,
            "type" : "VEC2"
        },
        {
            "bufferView" : 11,
            "componentType" : 5123,
            "count" : 534,
            "type" : "SCALAR"
        },
        {
            "bufferView" : 12,
            "componentType" : 5126,
            "count" : 20,
            "max" : [
                0.7991658449172974,
                0.2997227907180786,
                -0.7438086867332458
            ],
            "min" : [
                0.5783975124359131,
                -1.2279489040374756,
                -0.8779184818267822
            ],
            "type" : "VEC3"
        },
        {
            "bufferView" : 13,
            "componentType" : 5126,
            "count" : 20,
            "type" : "VEC3"
        },
        {
            "bufferView" : 14,
            "componentType" : 5126,
            "count" : 20,
            "type" : "VEC2"
        },
        {
            "bufferView" : 15,
            "componentType" : 5123,
            "count" : 30,
            "type" : "SCALAR"
        },
        {
            "bufferView" : 16,
            "componentType" : 5126,
            "count" : 20,
            "max" : [
                0.7991658449172974,
                0.2997227907180786,
                -0.7438086867332458
            ],
            "min" : [
                0.5783975124359131,
                -1.2279489040374756,
                -0.8779184818267822
            ],
            "type" : "VEC3"
        },
        {
            "bufferView" : 17,
            "componentType" : 5126,
            "count" : 20,
            "type" : "VEC3"
        },
        {
            "bufferView" : 18,
            "componentType" : 5126,
            "count" : 20,
            "type" : "VEC2"
        },
        {
            "bufferView" : 19,
            "componentType" : 5126,
            "count" : 20,
            "max" : [
                0.7991658449172974,
                0.2997227907180786,
                -0.7438086867332458
            ],
            "min" : [
                0.5783975124359131,
                -1.2279489040374756,
                -0.8779184818267822
            ],
            "type" : "VEC3"
        },
        {
            "bufferView" : 20,
            "componentType" : 5126,
            "count" : 20,
            "type" : "VEC3"
        },
        {
            "bufferView" : 21,
            "componentType" : 5126,
            "count" : 20,
            "type" : "VEC2"
        },
        {
            "bufferView" : 22,
            "componentType" : 5126,
            "count" : 20,
            "max" : [
                0.7991658449172974,
                0.2997227907180786,
                -0.7438086867332458
            ],
            "min" : [
                0.5783975124359131,
                -1.2279489040374756,
                -0.8779184818267822
            ],
            "type" : "VEC3"
        },
        {
            "bufferView" : 23,
            "componentType" : 5126,
            "count" : 20,
            "type" : "VEC3"
        },
        {
            "bufferView" : 24,
            "componentType" : 5126,
            "count" : 20,
            "type" : "VEC2"
        }
    ],
    "bufferViews" : [
        {
            "buffer" : 0,
            "byteLength" : 190128,
            "byteOffset" : 0,
            "target" : 34962
        },
        {
            "buffer" : 0,
            "byteLength" : 190128,
            "byteOffset" : 190128,
            "target" : 34962
        },
        {
            "buffer" : 0,
            "byteLength" : 126752,
            "byteOffset" : 380256,
            "target" : 34962
        },
        {
            "buffer" : 0,
            "byteLength" : 76440,
            "byteOffset" : 507008,
            "target" : 34963
        },
        {
            "buffer" : 0,
            "byteLength" : 178248,
            "byteOffset" : 583448,
            "target" : 34962
        },
        {
            "buffer" : 0,
            "byteLength" : 178248,
            "byteOffset" : 761696,
            "target" : 34962
        },
        {
            "buffer" : 0,
            "byteLength" : 118832,
            "byteOffset" : 939944,
            "target" : 34962
        },
        {
            "buffer" : 0,
            "byteLength" : 44616,
            "byteOffset" : 1058776,
            "target" : 34963
        },
        {
            "buffer" : 0,
            "byteLength" : 2352,
            "byteOffset" : 1103392,
            "target" : 34962
        },
        {
            "buffer" : 0,
            "byteLength" : 2352,
            "byteOffset" : 1105744,
            "target" : 34962
        },
        {
            "buffer" : 0,
            "byteLength" : 1568,
            "byteOffset" : 1108096,
            "target" : 34962
        },
        {
            "buffer" : 0,
            "byteLength" : 1068,
            "byteOffset" : 1109664,
            "target" : 34963
        },
        {
            "buffer" : 0,
            "byteLength" : 240,
            "byteOffset" : 1110732,
            "target" : 34962
        },
        {
            "buffer" : 0,
            "byteLength" : 240,
            "byteOffset" : 1110972,
            "target" : 34962
        },
        {
            "buffer" : 0,
            "byteLength" : 160,
            "byteOffset" : 1111212,
            "target" : 34962
        },
        {
            "buffer" : 0,
            "byteLength" : 60,
            "byteOffset" : 1111372,
            "target" : 34963
        },
        {
            "buffer" : 0,
            "byteLength" : 240,
            "byteOffset" : 1111432,
            "target" : 34962
        },
        {
            "buffer" : 0,
            "byteLength" : 240,
            "byteOffset" : 1111672,
            "target" : 34962
        },
        {
            "buffer" : 0,
            "byteLength" : 160,
            "byteOffset" : 1111912,
            "target" : 34962
        },
        {
            "buffer" : 0,
            "byteLength" : 240,
            "byteOffset" : 1112072,
            "target" : 34962
        },
        {
            "buffer" : 0,
            "byteLength" : 240,
            "byteOffset" : 1112312,
            "target" : 34962
        },
        {
            "buffer" : 0,
            "byteLength" : 160,
            "byteOffset" : 1112552,
            "target" : 34962
        },
        {
            "buffer" : 0,
            "byteLength" : 240,
            "byteOffset" : 1112712,
            "target" : 34962
        },
        {
            "buffer" : 0,
            "byteLength" : 240,
            "byteOffset" : 1112952,
            "target" : 34962
        },
        {
            "buffer" : 0,
            "byteLength" : 160,
            "byteOffset" : 1113192,
            "target" : 34962
        }
    ],
    "samplers" : [
        {
            "magFilter" : 9729,
            "minFilter" : 9987
        }
    ],
    "buffers" : [
        {
            "byteLength" : 1113352,
            "uri" : "NewestTisch.bin"
        }
    ]
}
