{
    "asset" : {
        "generator" : "Khronos glTF Blender I/O v3.3.32",
        "version" : "2.0"
    },
    "scene" : 0,
    "scenes" : [
        {
            "name" : "Scene",
            "nodes" : [
                0,
                1,
                2,
                3,
                4
            ]
        }
    ],
    "nodes" : [
        {
            "mesh" : 0,
            "name" : "Platte",
            "scale" : [
                4.89736795425415,
                0.19464385509490967,
                7.945387840270996
            ],
            "translation" : [
                0,
                5.800415515899658,
                0
            ]
        },
        {
            "mesh" : 1,
            "name" : "Bein1",
            "scale" : [
                4.89736795425415,
                0.19464385509490967,
                7.945387840270996
            ],
            "translation" : [
                4.2543840408325195,
                3.99116849899292,
                7.275709629058838
            ]
        },
        {
            "mesh" : 2,
            "name" : "Bein2",
            "scale" : [
                4.89736795425415,
                0.19464385509490967,
                7.945387840270996
            ],
            "translation" : [
                -4.395508289337158,
                3.99116849899292,
                7.275709629058838
            ]
        },
        {
            "mesh" : 3,
            "name" : "Bein3",
            "scale" : [
                4.89736795425415,
                0.19464385509490967,
                7.945387840270996
            ],
            "translation" : [
                4.264348983764648,
                3.99116849899292,
                -7.404675006866455
            ]
        },
        {
            "mesh" : 4,
            "name" : "Bein4",
            "scale" : [
                4.89736795425415,
                0.19464385509490967,
                7.945387840270996
            ],
            "translation" : [
                -4.393313884735107,
                3.99116849899292,
                -7.404675006866455
            ]
        }
    ],
    "materials" : [
        {
            "doubleSided" : true,
            "name" : "wood_table_001",
            "normalTexture" : {
                "index" : 0,
                "scale" : 0.3499999940395355
            },
            "pbrMetallicRoughness" : {
                "baseColorTexture" : {
                    "index" : 1
                },
                "metallicFactor" : 0,
                "metallicRoughnessTexture" : {
                    "index" : 2
                }
            }
        }
    ],
    "meshes" : [
        {
            "name" : "Cube",
            "primitives" : [
                {
                    "attributes" : {
                        "POSITION" : 0,
                        "NORMAL" : 1
                    },
                    "indices" : 2,
                    "material" : 0
                }
            ]
        },
        {
            "name" : "Cube.001",
            "primitives" : [
                {
                    "attributes" : {
                        "POSITION" : 3,
                        "NORMAL" : 4
                    },
                    "indices" : 5,
                    "material" : 0
                }
            ]
        },
        {
            "name" : "Cube.002",
            "primitives" : [
                {
                    "attributes" : {
                        "POSITION" : 6,
                        "NORMAL" : 7
                    },
                    "indices" : 5,
                    "material" : 0
                }
            ]
        },
        {
            "name" : "Cube.003",
            "primitives" : [
                {
                    "attributes" : {
                        "POSITION" : 8,
                        "NORMAL" : 9
                    },
                    "indices" : 5,
                    "material" : 0
                }
            ]
        },
        {
            "name" : "Cube.004",
            "primitives" : [
                {
                    "attributes" : {
                        "POSITION" : 10,
                        "NORMAL" : 11
                    },
                    "indices" : 5,
                    "material" : 0
                }
            ]
        }
    ],
    "textures" : [
        {
            "sampler" : 0,
            "source" : 0
        },
        {
            "sampler" : 0,
            "source" : 1
        },
        {
            "sampler" : 0,
            "source" : 2
        }
    ],
    "images" : [
        {
            "mimeType" : "image/png",
            "name" : "wood_table_001_nor_gl_16k",
            "uri" : "wood_table_001_nor_gl_16k.png"
        },
        {
            "mimeType" : "image/jpeg",
            "name" : "wood_table_001_diff_4k",
            "uri" : "wood_table_001_diff_4k.jpg"
        },
        {
            "mimeType" : "image/png",
            "name" : "wood_table_001_rough_4k",
            "uri" : "wood_table_001_rough_4k.png"
        }
    ],
    "accessors" : [
        {
            "bufferView" : 0,
            "componentType" : 5126,
            "count" : 216,
            "max" : [
                1,
                1,
                1
            ],
            "min" : [
                -1,
                -1,
                -1
            ],
            "type" : "VEC3"
        },
        {
            "bufferView" : 1,
            "componentType" : 5126,
            "count" : 216,
            "type" : "VEC3"
        },
        {
            "bufferView" : 2,
            "componentType" : 5123,
            "count" : 420,
            "type" : "SCALAR"
        },
        {
            "bufferView" : 3,
            "componentType" : 5126,
            "count" : 48,
            "max" : [
                0.0501670241355896,
                8.501760482788086,
                0.030921876430511475
            ],
            "min" : [
                -0.050166964530944824,
                -20.456344604492188,
                -0.030921876430511475
            ],
            "type" : "VEC3"
        },
        {
            "bufferView" : 4,
            "componentType" : 5126,
            "count" : 48,
            "type" : "VEC3"
        },
        {
            "bufferView" : 5,
            "componentType" : 5123,
            "count" : 84,
            "type" : "SCALAR"
        },
        {
            "bufferView" : 6,
            "componentType" : 5126,
            "count" : 48,
            "max" : [
                0.0501670241355896,
                8.501760482788086,
                0.030921876430511475
            ],
            "min" : [
                -0.050166964530944824,
                -20.456344604492188,
                -0.030921876430511475
            ],
            "type" : "VEC3"
        },
        {
            "bufferView" : 7,
            "componentType" : 5126,
            "count" : 48,
            "type" : "VEC3"
        },
        {
            "bufferView" : 8,
            "componentType" : 5126,
            "count" : 48,
            "max" : [
                0.0501670241355896,
                8.501760482788086,
                0.030921876430511475
            ],
            "min" : [
                -0.050166964530944824,
                -20.456344604492188,
                -0.030921876430511475
            ],
            "type" : "VEC3"
        },
        {
            "bufferView" : 9,
            "componentType" : 5126,
            "count" : 48,
            "type" : "VEC3"
        },
        {
            "bufferView" : 10,
            "componentType" : 5126,
            "count" : 48,
            "max" : [
                0.0501670241355896,
                8.501760482788086,
                0.030921876430511475
            ],
            "min" : [
                -0.050166964530944824,
                -20.456344604492188,
                -0.030921876430511475
            ],
            "type" : "VEC3"
        },
        {
            "bufferView" : 11,
            "componentType" : 5126,
            "count" : 48,
            "type" : "VEC3"
        }
    ],
    "bufferViews" : [
        {
            "buffer" : 0,
            "byteLength" : 2592,
            "byteOffset" : 0,
            "target" : 34962
        },
        {
            "buffer" : 0,
            "byteLength" : 2592,
            "byteOffset" : 2592,
            "target" : 34962
        },
        {
            "buffer" : 0,
            "byteLength" : 840,
            "byteOffset" : 5184,
            "target" : 34963
        },
        {
            "buffer" : 0,
            "byteLength" : 576,
            "byteOffset" : 6024,
            "target" : 34962
        },
        {
            "buffer" : 0,
            "byteLength" : 576,
            "byteOffset" : 6600,
            "target" : 34962
        },
        {
            "buffer" : 0,
            "byteLength" : 168,
            "byteOffset" : 7176,
            "target" : 34963
        },
        {
            "buffer" : 0,
            "byteLength" : 576,
            "byteOffset" : 7344,
            "target" : 34962
        },
        {
            "buffer" : 0,
            "byteLength" : 576,
            "byteOffset" : 7920,
            "target" : 34962
        },
        {
            "buffer" : 0,
            "byteLength" : 576,
            "byteOffset" : 8496,
            "target" : 34962
        },
        {
            "buffer" : 0,
            "byteLength" : 576,
            "byteOffset" : 9072,
            "target" : 34962
        },
        {
            "buffer" : 0,
            "byteLength" : 576,
            "byteOffset" : 9648,
            "target" : 34962
        },
        {
            "buffer" : 0,
            "byteLength" : 576,
            "byteOffset" : 10224,
            "target" : 34962
        }
    ],
    "samplers" : [
        {
            "magFilter" : 9729,
            "minFilter" : 9987
        }
    ],
    "buffers" : [
        {
            "byteLength" : 10800,
            "uri" : "Tisch.bin"
        }
    ]
}
