{
    "asset" : {
        "generator" : "Khronos glTF Blender I/O v3.3.32",
        "version" : "2.0"
    },
    "scene" : 0,
    "scenes" : [
        {
            "name" : "Scene",
            "nodes" : [
                0,
                1,
                2,
                3,
                4
            ]
        }
    ],
    "nodes" : [
        {
            "mesh" : 0,
            "name" : "Platte",
            "scale" : [
                4.89736795425415,
                0.19464385509490967,
                7.945387840270996
            ],
            "translation" : [
                0,
                5.800415515899658,
                0
            ]
        },
        {
            "mesh" : 1,
            "name" : "Bein1",
            "scale" : [
                4.89736795425415,
                0.19464385509490967,
                7.945387840270996
            ],
            "translation" : [
                4.2543840408325195,
                3.99116849899292,
                7.275709629058838
            ]
        },
        {
            "mesh" : 2,
            "name" : "Bein2",
            "scale" : [
                4.89736795425415,
                0.19464385509490967,
                7.945387840270996
            ],
            "translation" : [
                -4.395508289337158,
                3.99116849899292,
                7.275709629058838
            ]
        },
        {
            "mesh" : 3,
            "name" : "Bein3",
            "scale" : [
                4.89736795425415,
                0.19464385509490967,
                7.945387840270996
            ],
            "translation" : [
                4.264348983764648,
                3.99116849899292,
                -7.404675006866455
            ]
        },
        {
            "mesh" : 4,
            "name" : "Bein4",
            "scale" : [
                4.89736795425415,
                0.19464385509490967,
                7.945387840270996
            ],
            "translation" : [
                -4.393313884735107,
                3.99116849899292,
                -7.404675006866455
            ]
        }
    ],
    "materials" : [
        {
            "doubleSided" : true,
            "name" : "wood_table_001",
            "normalTexture" : {
                "index" : 0,
                "scale" : 0.3499999940395355
            },
            "pbrMetallicRoughness" : {
                "baseColorTexture" : {
                    "index" : 1
                },
                "metallicFactor" : 0,
                "metallicRoughnessTexture" : {
                    "index" : 2
                }
            }
        }
    ],
    "meshes" : [
        {
            "name" : "Cube",
            "primitives" : [
                {
                    "attributes" : {
                        "POSITION" : 0,
                        "NORMAL" : 1,
                        "TEXCOORD_0" : 2
                    },
                    "indices" : 3,
                    "material" : 0
                }
            ]
        },
        {
            "name" : "Cube.001",
            "primitives" : [
                {
                    "attributes" : {
                        "POSITION" : 4,
                        "NORMAL" : 5,
                        "TANGENT" : 6,
                        "TEXCOORD_0" : 7
                    },
                    "indices" : 8,
                    "material" : 0
                }
            ]
        },
        {
            "name" : "Cube.002",
            "primitives" : [
                {
                    "attributes" : {
                        "POSITION" : 9,
                        "NORMAL" : 10,
                        "TANGENT" : 11,
                        "TEXCOORD_0" : 12
                    },
                    "indices" : 8,
                    "material" : 0
                }
            ]
        },
        {
            "name" : "Cube.003",
            "primitives" : [
                {
                    "attributes" : {
                        "POSITION" : 13,
                        "NORMAL" : 14,
                        "TANGENT" : 15,
                        "TEXCOORD_0" : 16
                    },
                    "indices" : 8,
                    "material" : 0
                }
            ]
        },
        {
            "name" : "Cube.004",
            "primitives" : [
                {
                    "attributes" : {
                        "POSITION" : 17,
                        "NORMAL" : 18,
                        "TANGENT" : 19,
                        "TEXCOORD_0" : 20
                    },
                    "indices" : 8,
                    "material" : 0
                }
            ]
        }
    ],
    "textures" : [
        {
            "sampler" : 0,
            "source" : 0
        },
        {
            "sampler" : 0,
            "source" : 1
        },
        {
            "sampler" : 0,
            "source" : 2
        }
    ],
    "images" : [
        {
            "mimeType" : "image/jpeg",
            "name" : "wood_table_001_nor_gl_16k",
            "uri" : "wood_table_001_nor_gl_16k.jpg"
        },
        {
            "mimeType" : "image/jpeg",
            "name" : "wood_table_001_diff_4k",
            "uri" : "wood_table_001_diff_4k.jpg"
        },
        {
            "mimeType" : "image/jpeg",
            "name" : "wood_table_001_rough_4k",
            "uri" : "wood_table_001_rough_4k.jpg"
        }
    ],
    "accessors" : [
        {
            "bufferView" : 0,
            "componentType" : 5126,
            "count" : 226,
            "max" : [
                1,
                1,
                1
            ],
            "min" : [
                -1,
                -1,
                -1
            ],
            "type" : "VEC3"
        },
        {
            "bufferView" : 1,
            "componentType" : 5126,
            "count" : 226,
            "type" : "VEC3"
        },
        {
            "bufferView" : 2,
            "componentType" : 5126,
            "count" : 226,
            "type" : "VEC2"
        },
        {
            "bufferView" : 3,
            "componentType" : 5123,
            "count" : 420,
            "type" : "SCALAR"
        },
        {
            "bufferView" : 4,
            "componentType" : 5126,
            "count" : 50,
            "max" : [
                0.0501670241355896,
                8.501760482788086,
                0.030921876430511475
            ],
            "min" : [
                -0.050166964530944824,
                -20.456344604492188,
                -0.030921876430511475
            ],
            "type" : "VEC3"
        },
        {
            "bufferView" : 5,
            "componentType" : 5126,
            "count" : 50,
            "type" : "VEC3"
        },
        {
            "bufferView" : 6,
            "componentType" : 5126,
            "count" : 50,
            "type" : "VEC4"
        },
        {
            "bufferView" : 7,
            "componentType" : 5126,
            "count" : 50,
            "type" : "VEC2"
        },
        {
            "bufferView" : 8,
            "componentType" : 5123,
            "count" : 84,
            "type" : "SCALAR"
        },
        {
            "bufferView" : 9,
            "componentType" : 5126,
            "count" : 50,
            "max" : [
                0.0501670241355896,
                8.501760482788086,
                0.030921876430511475
            ],
            "min" : [
                -0.050166964530944824,
                -20.456344604492188,
                -0.030921876430511475
            ],
            "type" : "VEC3"
        },
        {
            "bufferView" : 10,
            "componentType" : 5126,
            "count" : 50,
            "type" : "VEC3"
        },
        {
            "bufferView" : 11,
            "componentType" : 5126,
            "count" : 50,
            "type" : "VEC4"
        },
        {
            "bufferView" : 12,
            "componentType" : 5126,
            "count" : 50,
            "type" : "VEC2"
        },
        {
            "bufferView" : 13,
            "componentType" : 5126,
            "count" : 50,
            "max" : [
                0.0501670241355896,
                8.501760482788086,
                0.030921876430511475
            ],
            "min" : [
                -0.050166964530944824,
                -20.456344604492188,
                -0.030921876430511475
            ],
            "type" : "VEC3"
        },
        {
            "bufferView" : 14,
            "componentType" : 5126,
            "count" : 50,
            "type" : "VEC3"
        },
        {
            "bufferView" : 15,
            "componentType" : 5126,
            "count" : 50,
            "type" : "VEC4"
        },
        {
            "bufferView" : 16,
            "componentType" : 5126,
            "count" : 50,
            "type" : "VEC2"
        },
        {
            "bufferView" : 17,
            "componentType" : 5126,
            "count" : 50,
            "max" : [
                0.0501670241355896,
                8.501760482788086,
                0.030921876430511475
            ],
            "min" : [
                -0.050166964530944824,
                -20.456344604492188,
                -0.030921876430511475
            ],
            "type" : "VEC3"
        },
        {
            "bufferView" : 18,
            "componentType" : 5126,
            "count" : 50,
            "type" : "VEC3"
        },
        {
            "bufferView" : 19,
            "componentType" : 5126,
            "count" : 50,
            "type" : "VEC4"
        },
        {
            "bufferView" : 20,
            "componentType" : 5126,
            "count" : 50,
            "type" : "VEC2"
        }
    ],
    "bufferViews" : [
        {
            "buffer" : 0,
            "byteLength" : 2712,
            "byteOffset" : 0,
            "target" : 34962
        },
        {
            "buffer" : 0,
            "byteLength" : 2712,
            "byteOffset" : 2712,
            "target" : 34962
        },
        {
            "buffer" : 0,
            "byteLength" : 1808,
            "byteOffset" : 5424,
            "target" : 34962
        },
        {
            "buffer" : 0,
            "byteLength" : 840,
            "byteOffset" : 7232,
            "target" : 34963
        },
        {
            "buffer" : 0,
            "byteLength" : 600,
            "byteOffset" : 8072,
            "target" : 34962
        },
        {
            "buffer" : 0,
            "byteLength" : 600,
            "byteOffset" : 8672,
            "target" : 34962
        },
        {
            "buffer" : 0,
            "byteLength" : 800,
            "byteOffset" : 9272,
            "target" : 34962
        },
        {
            "buffer" : 0,
            "byteLength" : 400,
            "byteOffset" : 10072,
            "target" : 34962
        },
        {
            "buffer" : 0,
            "byteLength" : 168,
            "byteOffset" : 10472,
            "target" : 34963
        },
        {
            "buffer" : 0,
            "byteLength" : 600,
            "byteOffset" : 10640,
            "target" : 34962
        },
        {
            "buffer" : 0,
            "byteLength" : 600,
            "byteOffset" : 11240,
            "target" : 34962
        },
        {
            "buffer" : 0,
            "byteLength" : 800,
            "byteOffset" : 11840,
            "target" : 34962
        },
        {
            "buffer" : 0,
            "byteLength" : 400,
            "byteOffset" : 12640,
            "target" : 34962
        },
        {
            "buffer" : 0,
            "byteLength" : 600,
            "byteOffset" : 13040,
            "target" : 34962
        },
        {
            "buffer" : 0,
            "byteLength" : 600,
            "byteOffset" : 13640,
            "target" : 34962
        },
        {
            "buffer" : 0,
            "byteLength" : 800,
            "byteOffset" : 14240,
            "target" : 34962
        },
        {
            "buffer" : 0,
            "byteLength" : 400,
            "byteOffset" : 15040,
            "target" : 34962
        },
        {
            "buffer" : 0,
            "byteLength" : 600,
            "byteOffset" : 15440,
            "target" : 34962
        },
        {
            "buffer" : 0,
            "byteLength" : 600,
            "byteOffset" : 16040,
            "target" : 34962
        },
        {
            "buffer" : 0,
            "byteLength" : 800,
            "byteOffset" : 16640,
            "target" : 34962
        },
        {
            "buffer" : 0,
            "byteLength" : 400,
            "byteOffset" : 17440,
            "target" : 34962
        }
    ],
    "samplers" : [
        {
            "magFilter" : 9729,
            "minFilter" : 9987
        }
    ],
    "buffers" : [
        {
            "byteLength" : 17840,
            "uri" : "Tisch.bin"
        }
    ]
}
